<?xml version="1.0" encoding="UTF-8"?>
<svg version="1.1" viewBox="0 0 700 700" xmlns="http://www.w3.org/2000/svg">
 <path d="m602 140h-75.602l25.199-106.4c2.8008-14-5.5977-28-22.398-33.602-14-2.8008-30.801 5.6016-33.602 19.602l-28 117.6-165.2-0.003906 25.199-106.4c2.8008-11.199-5.5977-25.199-22.398-30.801-14-2.8008-28 5.6016-33.598 22.398l-28 117.6h-89.602c-16.801 0-28 11.199-28 28s11.199 28 28 28h75.602l-42 168h-89.602c-16.801 0-28 11.199-28 28s11.199 28 28 28h75.602l-25.199 106.4c-2.8008 14 5.5977 28 22.398 33.602 14 2.8008 30.801-5.6016 33.602-19.602l28-117.6h165.2l-25.199 106.4c-2.8008 14 5.6016 30.801 19.602 33.602s30.801-5.6016 33.602-19.602l28-117.6 92.395 0.007812c16.801 0 28-11.199 28-28 0-16.801-11.199-28-28-28h-75.602l42-168h89.602c16.801 0 28-11.199 28-28 0-16.801-14-33.602-28-33.602zm-190.4 224h-165.2l42-168h165.2z"/>
</svg>
