<?xml version="1.0" encoding="UTF-8"?>
<svg width="700pt" height="700pt" version="1.1" viewBox="0 0 700 700" xmlns="http://www.w3.org/2000/svg" xmlns:xlink="http://www.w3.org/1999/xlink">
 <defs>
  <symbol id="t" overflow="visible">
   <path d="m5.625-0.34375c-0.28125 0.15625-0.58594 0.27344-0.90625 0.34375-0.3125 0.082031-0.64062 0.125-0.98438 0.125-1.0234 0-1.8281-0.28516-2.4219-0.85938-0.59375-0.57031-0.89062-1.3477-0.89062-2.3281 0-0.97656 0.29688-1.75 0.89062-2.3125 0.59375-0.57031 1.3984-0.85938 2.4219-0.85938 0.34375 0 0.67188 0.039063 0.98438 0.10938 0.32031 0.074219 0.625 0.1875 0.90625 0.34375v1.2656c-0.29297-0.19531-0.57812-0.34375-0.85938-0.4375s-0.58594-0.14062-0.90625-0.14062c-0.5625 0-1.0078 0.18359-1.3281 0.54688-0.32422 0.35547-0.48438 0.85156-0.48438 1.4844 0 0.63672 0.16016 1.1367 0.48438 1.5 0.32031 0.35547 0.76562 0.53125 1.3281 0.53125 0.32031 0 0.625-0.046875 0.90625-0.14062s0.56641-0.23828 0.85938-0.4375z"/>
  </symbol>
  <symbol id="c" overflow="visible">
   <path d="m4.125-3.3438c-0.13672-0.0625-0.26562-0.10156-0.39062-0.125-0.125-0.03125-0.25-0.046875-0.375-0.046875-0.38672 0-0.68359 0.12109-0.89062 0.35938-0.19922 0.24219-0.29688 0.58594-0.29688 1.0312v2.125h-1.4688v-4.5938h1.4688v0.75c0.1875-0.30078 0.39844-0.51953 0.64062-0.65625 0.25-0.13281 0.54688-0.20312 0.89062-0.20312h0.15625c0.0625 0 0.14453 0.011719 0.25 0.03125z"/>
  </symbol>
  <symbol id="b" overflow="visible">
   <path d="m5.2969-2.3125v0.42188h-3.4375c0.03125 0.34375 0.14844 0.60547 0.35938 0.78125 0.21875 0.16797 0.51953 0.25 0.90625 0.25 0.3125 0 0.62891-0.046875 0.95312-0.14062 0.32031-0.09375 0.65625-0.22656 1-0.40625v1.125c-0.34375 0.13672-0.69531 0.23438-1.0469 0.29688-0.34375 0.070312-0.6875 0.10938-1.0312 0.10938-0.83594 0-1.4844-0.21094-1.9531-0.64062-0.46094-0.42578-0.6875-1.0195-0.6875-1.7812 0-0.75 0.22266-1.3359 0.67188-1.7656 0.45703-0.42578 1.082-0.64062 1.875-0.64062 0.72656 0 1.3047 0.21875 1.7344 0.65625 0.4375 0.42969 0.65625 1.0078 0.65625 1.7344zm-1.5156-0.48438c0-0.28125-0.085938-0.50391-0.25-0.67188-0.15625-0.17578-0.36719-0.26562-0.625-0.26562-0.29297 0-0.52734 0.085937-0.70312 0.25-0.17969 0.15625-0.28906 0.38672-0.32812 0.6875z"/>
  </symbol>
  <symbol id="d" overflow="visible">
   <path d="m2.7656-2.0625c-0.30469 0-0.53125 0.054688-0.6875 0.15625-0.15625 0.10547-0.23438 0.25781-0.23438 0.45312 0 0.1875 0.0625 0.33594 0.1875 0.4375 0.125 0.10547 0.29688 0.15625 0.51562 0.15625 0.28125 0 0.51562-0.097656 0.70312-0.29688 0.1875-0.19531 0.28125-0.44531 0.28125-0.75v-0.15625zm2.25-0.5625v2.625h-1.4844v-0.6875c-0.19922 0.28125-0.42188 0.49219-0.67188 0.625-0.24219 0.125-0.53906 0.1875-0.89062 0.1875-0.48047 0-0.87109-0.14062-1.1719-0.42188-0.29297-0.28125-0.4375-0.64062-0.4375-1.0781 0-0.53906 0.17969-0.9375 0.54688-1.1875 0.375-0.25 0.95703-0.375 1.75-0.375h0.875v-0.125c0-0.22656-0.09375-0.39453-0.28125-0.5-0.17969-0.11328-0.46484-0.17188-0.85938-0.17188-0.3125 0-0.60547 0.03125-0.875 0.09375-0.27344 0.0625-0.52344 0.15625-0.75 0.28125v-1.1094c0.3125-0.082031 0.625-0.14062 0.9375-0.17188 0.32031-0.039063 0.64062-0.0625 0.95312-0.0625 0.83203 0 1.4297 0.16406 1.7969 0.48438 0.375 0.32422 0.5625 0.85547 0.5625 1.5938z"/>
  </symbol>
  <symbol id="a" overflow="visible">
   <path d="m2.3125-5.9062v1.3125h1.5156v1.0469h-1.5156v1.9531c0 0.21094 0.039062 0.35547 0.125 0.4375 0.082031 0.074219 0.25 0.10938 0.5 0.10938h0.76562v1.0469h-1.2656c-0.58594 0-0.99609-0.11719-1.2344-0.35938-0.24219-0.23828-0.35938-0.64844-0.35938-1.2344v-1.9531h-0.73438v-1.0469h0.73438v-1.3125z"/>
  </symbol>
  <symbol id="i" overflow="visible">
   <path d="m3.8281-3.9219v-2.4688h1.4844v6.3906h-1.4844v-0.67188c-0.19922 0.27344-0.42188 0.47656-0.67188 0.60938-0.24219 0.125-0.52344 0.1875-0.84375 0.1875-0.5625 0-1.0273-0.22266-1.3906-0.67188-0.36719-0.45703-0.54688-1.0391-0.54688-1.75 0-0.70703 0.17969-1.2852 0.54688-1.7344 0.36328-0.44531 0.82812-0.67188 1.3906-0.67188 0.32031 0 0.60156 0.0625 0.84375 0.1875 0.25 0.125 0.47266 0.32422 0.67188 0.59375zm-0.96875 2.9688c0.32031 0 0.5625-0.11328 0.71875-0.34375 0.16406-0.22656 0.25-0.5625 0.25-1s-0.085937-0.76953-0.25-1c-0.15625-0.22656-0.39844-0.34375-0.71875-0.34375-0.3125 0-0.55469 0.11719-0.71875 0.34375-0.15625 0.23047-0.23438 0.5625-0.23438 1s0.078125 0.77344 0.23438 1c0.16406 0.23047 0.40625 0.34375 0.71875 0.34375z"/>
  </symbol>
  <symbol id="h" overflow="visible">
   <path d="m3.1562-0.95312c0.3125 0 0.55078-0.11328 0.71875-0.34375 0.16406-0.22656 0.25-0.5625 0.25-1s-0.085938-0.76953-0.25-1c-0.16797-0.22656-0.40625-0.34375-0.71875-0.34375s-0.55859 0.11719-0.73438 0.34375c-0.16797 0.23047-0.25 0.5625-0.25 1s0.082031 0.77344 0.25 1c0.17578 0.23047 0.42188 0.34375 0.73438 0.34375zm-0.98438-2.9688c0.20703-0.26953 0.42969-0.46875 0.67188-0.59375 0.25-0.125 0.53516-0.1875 0.85938-0.1875 0.5625 0 1.0234 0.22656 1.3906 0.67188 0.36328 0.44922 0.54688 1.0273 0.54688 1.7344 0 0.71094-0.18359 1.293-0.54688 1.75-0.36719 0.44922-0.82812 0.67188-1.3906 0.67188-0.32422 0-0.60938-0.0625-0.85938-0.1875-0.24219-0.13281-0.46484-0.33594-0.67188-0.60938v0.67188h-1.4688v-6.3906h1.4688z"/>
  </symbol>
  <symbol id="g" overflow="visible">
   <path d="m0.10938-4.5938h1.4688l1.2344 3.1094 1.0469-3.1094h1.4688l-1.9375 5.0312c-0.1875 0.50781-0.41406 0.86328-0.67188 1.0625-0.26172 0.20703-0.60547 0.3125-1.0312 0.3125h-0.84375v-0.96875h0.45312c0.25 0 0.42969-0.042969 0.54688-0.125 0.11328-0.074219 0.20312-0.21484 0.26562-0.42188l0.046875-0.125z"/>
  </symbol>
  <symbol id="f" overflow="visible">
   <path d="m4.9688-3.8281c0.1875-0.28906 0.40625-0.50781 0.65625-0.65625 0.25781-0.14453 0.53906-0.21875 0.84375-0.21875 0.53125 0 0.92969 0.16406 1.2031 0.48438 0.28125 0.32422 0.42188 0.79688 0.42188 1.4219v2.7969h-1.4844v-2.3906c0.007813-0.039063 0.015625-0.078125 0.015625-0.10938v-0.17188c0-0.32031-0.046875-0.55469-0.14062-0.70312-0.09375-0.14453-0.25-0.21875-0.46875-0.21875-0.28125 0-0.5 0.11719-0.65625 0.34375-0.14844 0.23047-0.21875 0.5625-0.21875 1v2.25h-1.4844v-2.3906c0-0.50781-0.046875-0.83594-0.14062-0.98438-0.085937-0.14453-0.23438-0.21875-0.45312-0.21875-0.28125 0-0.5 0.11719-0.65625 0.34375-0.15625 0.23047-0.23438 0.55859-0.23438 0.98438v2.2656h-1.4688v-4.5938h1.4688v0.67188c0.1875-0.25781 0.39453-0.45312 0.625-0.57812 0.22656-0.13281 0.48828-0.20312 0.78125-0.20312 0.3125 0 0.58594 0.078125 0.82812 0.23438 0.25 0.14844 0.4375 0.35938 0.5625 0.64062z"/>
  </symbol>
  <symbol id="s" overflow="visible">
   <path d="m0.29688-4.5938h1.4219l0.78125 3.1719 0.76562-3.1719h1.2344l0.76562 3.125 0.78125-3.125h1.4219l-1.2031 4.5938h-1.6094l-0.76562-3.1562-0.78125 3.1562h-1.6094z"/>
  </symbol>
  <symbol id="r" overflow="visible">
   <path d="m0.70312-4.5938h1.4688v4.5938h-1.4688zm0-1.7969h1.4688v1.2031h-1.4688z"/>
  </symbol>
  <symbol id="q" overflow="visible">
   <path d="m3.7344-6.3906v0.96875h-0.8125c-0.21094 0-0.35547 0.039063-0.4375 0.10938-0.085937 0.074219-0.125 0.20312-0.125 0.39062v0.32812h1.25v1.0469h-1.25v3.5469h-1.4688v-3.5469h-0.73438v-1.0469h0.73438v-0.32812c0-0.5 0.14062-0.86719 0.42188-1.1094 0.28125-0.23828 0.71094-0.35938 1.2969-0.35938z"/>
  </symbol>
  <symbol id="e" overflow="visible">
   <path d="m2.8906-3.6562c-0.32422 0-0.57422 0.12109-0.75 0.35938-0.16797 0.23047-0.25 0.5625-0.25 1s0.082031 0.77734 0.25 1.0156c0.17578 0.23047 0.42578 0.34375 0.75 0.34375 0.32031 0 0.56641-0.11328 0.73438-0.34375 0.17578-0.23828 0.26562-0.57812 0.26562-1.0156s-0.089844-0.76953-0.26562-1c-0.16797-0.23828-0.41406-0.35938-0.73438-0.35938zm0-1.0469c0.78906 0 1.4062 0.21484 1.8438 0.64062 0.44531 0.42969 0.67188 1.0156 0.67188 1.7656 0 0.76172-0.22656 1.3555-0.67188 1.7812-0.4375 0.42969-1.0547 0.64062-1.8438 0.64062-0.79297 0-1.4141-0.21094-1.8594-0.64062-0.44922-0.42578-0.67188-1.0195-0.67188-1.7812 0-0.75 0.22266-1.3359 0.67188-1.7656 0.44531-0.42578 1.0664-0.64062 1.8594-0.64062z"/>
  </symbol>
  <symbol id="p" overflow="visible">
   <path d="m5.3281-2.7969v2.7969h-1.4844v-2.1406c0-0.39453-0.011719-0.66406-0.03125-0.8125-0.011719-0.15625-0.039062-0.26953-0.078125-0.34375-0.0625-0.09375-0.14844-0.16406-0.25-0.21875-0.09375-0.050781-0.20312-0.078125-0.32812-0.078125-0.30469 0-0.54297 0.12109-0.71875 0.35938-0.17969 0.23047-0.26562 0.55469-0.26562 0.96875v2.2656h-1.4688v-6.3906h1.4688v2.4688c0.22656-0.26953 0.46094-0.46875 0.70312-0.59375 0.25-0.125 0.52344-0.1875 0.82812-0.1875 0.53125 0 0.92969 0.16406 1.2031 0.48438 0.28125 0.32422 0.42188 0.79688 0.42188 1.4219z"/>
  </symbol>
  <symbol id="o" overflow="visible">
   <path d="m0.76562-6.125h1.7656l2.2344 4.2031v-4.2031h1.5v6.125h-1.7656l-2.2344-4.2031v4.2031h-1.5z"/>
  </symbol>
  <symbol id="n" overflow="visible">
   <path d="m0.65625-1.7969v-2.7969h1.4844v0.45312c0 0.25-0.007813 0.5625-0.015625 0.9375v0.75c0 0.375 0.007812 0.64844 0.03125 0.8125 0.019531 0.15625 0.050781 0.27344 0.09375 0.34375 0.0625 0.09375 0.14062 0.16797 0.23438 0.21875 0.10156 0.054687 0.21875 0.078125 0.34375 0.078125 0.30078 0 0.53906-0.11328 0.71875-0.34375 0.17578-0.23828 0.26562-0.56641 0.26562-0.98438v-2.2656h1.4688v4.5938h-1.4688v-0.67188c-0.21875 0.27344-0.45312 0.47656-0.70312 0.60938-0.25 0.125-0.52734 0.1875-0.82812 0.1875-0.53125 0-0.9375-0.16016-1.2188-0.48438-0.27344-0.33203-0.40625-0.8125-0.40625-1.4375z"/>
  </symbol>
  <symbol id="m" overflow="visible">
   <path d="m5.3281-2.7969v2.7969h-1.4844v-2.1406c0-0.39453-0.011719-0.66406-0.03125-0.8125-0.011719-0.15625-0.039062-0.26953-0.078125-0.34375-0.0625-0.09375-0.14844-0.16406-0.25-0.21875-0.09375-0.050781-0.20312-0.078125-0.32812-0.078125-0.30469 0-0.54297 0.12109-0.71875 0.35938-0.17969 0.23047-0.26562 0.55469-0.26562 0.96875v2.2656h-1.4688v-4.5938h1.4688v0.67188c0.22656-0.26953 0.46094-0.46875 0.70312-0.59375 0.25-0.125 0.52344-0.1875 0.82812-0.1875 0.53125 0 0.92969 0.16406 1.2031 0.48438 0.28125 0.32422 0.42188 0.79688 0.42188 1.4219z"/>
  </symbol>
  <symbol id="l" overflow="visible">
   <path d="m0.76562-6.125h2.625c0.78125 0 1.3789 0.17188 1.7969 0.51562 0.41406 0.34375 0.625 0.83984 0.625 1.4844 0 0.63672-0.21094 1.1328-0.625 1.4844-0.41797 0.34375-1.0156 0.51562-1.7969 0.51562h-1.0312v2.125h-1.5938zm1.5938 1.1406v1.7188h0.85938c0.3125 0 0.55078-0.070313 0.71875-0.21875 0.16406-0.15625 0.25-0.36719 0.25-0.64062 0-0.28125-0.085938-0.49219-0.25-0.64062-0.16797-0.14453-0.40625-0.21875-0.71875-0.21875z"/>
  </symbol>
  <symbol id="k" overflow="visible">
   <path d="m0.70312-4.5938h1.4688v4.5156c0 0.61328-0.15234 1.082-0.45312 1.4062-0.29297 0.32031-0.71484 0.48438-1.2656 0.48438h-0.73438v-0.96875h0.25c0.28125 0 0.47266-0.0625 0.57812-0.1875 0.10156-0.125 0.15625-0.37109 0.15625-0.73438zm0-1.7969h1.4688v1.2031h-1.4688z"/>
  </symbol>
  <symbol id="j" overflow="visible">
   <path d="m4.4219-4.4531v1.2031c-0.19922-0.13281-0.40234-0.23438-0.60938-0.29688-0.19922-0.070313-0.40625-0.10938-0.625-0.10938-0.40625 0-0.72656 0.12109-0.95312 0.35938-0.23047 0.24219-0.34375 0.57422-0.34375 1 0 0.42969 0.11328 0.76172 0.34375 1 0.22656 0.24219 0.54688 0.35938 0.95312 0.35938 0.22656 0 0.44531-0.03125 0.65625-0.09375 0.20703-0.070312 0.39844-0.17578 0.57812-0.3125v1.2031c-0.23047 0.085938-0.46484 0.14453-0.70312 0.1875-0.24219 0.050781-0.47656 0.078125-0.70312 0.078125-0.83594 0-1.4844-0.21094-1.9531-0.64062-0.46875-0.42578-0.70312-1.0195-0.70312-1.7812 0-0.75781 0.23438-1.3477 0.70312-1.7656 0.46875-0.42578 1.1172-0.64062 1.9531-0.64062 0.23828 0 0.47266 0.023437 0.70312 0.0625 0.23828 0.042969 0.47266 0.10547 0.70312 0.1875z"/>
  </symbol>
 </defs>
 <g>
  <path d="m393.74 72.965c3.6953 0.77344 7.375 1.6641 11.02 2.6367l0.37109 0.10156c3.543 0.95703 7.0547 2 10.551 3.1406l22.262-38.574c2.3008-4 7.4102-5.375 11.426-3.0742l61.203 35.332c4 2.3008 5.375 7.4102 3.0742 11.426l-22.312 38.676c2.8047 2.5195 5.543 5.125 8.2148 7.7969 2.6562 2.6562 5.2422 5.4102 7.8125 8.2656l38.641-22.312c4-2.3203 9.1406-0.95703 11.441 3.0391l35.332 61.238c2.3008 4 0.92578 9.1211-3.0742 11.426l-38.59 22.277c1.1914 3.6289 2.2852 7.2734 3.2578 10.902 0.97266 3.6445 1.8633 7.3242 2.6367 11.02h44.57c4.6367 0 8.3984 3.7617 8.3984 8.3984v70.68c0 4.6367-3.7617 8.3984-8.3984 8.3984h-44.555c-0.77344 3.6953-1.6445 7.375-2.6367 11.02l-0.10156 0.37109c-0.95703 3.543-2 7.0742-3.1406 10.566l38.574 22.262c4 2.3008 5.375 7.4102 3.0742 11.426l-35.332 61.203c-2.3008 4-7.4102 5.375-11.426 3.0742l-38.656-22.312c-2.5703 2.8555-5.1562 5.6094-7.7773 8.2305-2.6562 2.6562-5.4102 5.2578-8.2812 7.8125l22.312 38.641c2.3203 4 0.95703 9.1406-3.0391 11.441l-61.238 35.332c-4 2.2852-9.1055 0.92578-11.406-3.0586l-22.312-38.59c-3.6289 1.1758-7.2734 2.2695-10.887 3.2422-3.6445 0.97266-7.3242 1.8633-11.02 2.6367v44.555c0 4.6367-3.7617 8.3984-8.3984 8.3984h-70.68c-4.6367 0-8.3984-3.7617-8.3984-8.3984v-44.555c-3.6953-0.77344-7.375-1.6445-11.02-2.6367l-0.37109-0.10156c-3.543-0.95703-7.0742-2-10.566-3.1406l-22.262 38.574c-2.3008 4-7.4102 5.375-11.426 3.0742l-61.203-35.332c-4-2.3008-5.375-7.4102-3.0742-11.426l22.312-38.656c-2.8555-2.5703-5.6094-5.1562-8.2305-7.7773-2.6562-2.6562-5.2578-5.4102-7.8125-8.2812l-38.641 22.312c-4 2.3203-9.1406 0.95703-11.441-3.0391l-35.332-61.238c-2.2852-4-0.92578-9.1055 3.0586-11.406l38.59-22.312c-1.1758-3.6289-2.2695-7.2734-3.2422-10.887-0.97266-3.6445-1.8633-7.3242-2.6367-11.02h-44.555c-4.6367 0-8.3984-3.7617-8.3984-8.3984v-70.68c0-4.6367 3.7617-8.3984 8.3984-8.3984h44.555c0.77344-3.6953 1.6445-7.375 2.6367-11.02l0.10156-0.37109c0.95703-3.543 2-7.0742 3.1406-10.566l-38.574-22.262c-4-2.3008-5.375-7.4102-3.0742-11.426l35.332-61.203c2.3008-4 7.4102-5.375 11.426-3.0742l38.656 22.312c2.5703-2.8555 5.1562-5.6094 7.7773-8.2305 2.6562-2.6562 5.4102-5.2578 8.2812-7.8125l-22.312-38.641c-2.3203-4-0.95703-9.1406 3.0391-11.441l61.238-35.332c4-2.2852 9.1055-0.92578 11.406 3.0586l22.312 38.59c3.6289-1.1758 7.2734-2.2695 10.887-3.2422 3.6445-0.97266 7.3242-1.8633 11.02-2.6367v-44.555c0-4.6367 3.7617-8.3984 8.3984-8.3984h70.68c4.6367 0 8.3984 3.7617 8.3984 8.3984v44.555zm-43.746 76.594c36.004 0 68.594 14.598 92.215 38.203 23.637 23.605 38.238 56.215 38.238 92.25 0 36.02-14.598 68.629-38.203 92.234l-0.50391 0.45312c-23.57 23.336-55.996 37.75-91.746 37.75-36.02 0-68.629-14.598-92.234-38.203-23.605-23.605-38.203-56.215-38.203-92.234 0-36.004 14.598-68.594 38.203-92.215 23.605-23.637 56.215-38.238 92.234-38.238zm80.371 50.082c-20.547-20.562-48.973-33.281-80.371-33.281-31.383 0-59.793 12.719-80.355 33.281-20.562 20.547-33.281 48.973-33.281 80.355 0 31.383 12.719 59.793 33.281 80.355s48.973 33.281 80.355 33.281c31.18 0 59.438-12.551 79.969-32.859l0.38672-0.42188c20.562-20.562 33.281-48.973 33.281-80.355 0-31.383-12.719-59.793-33.281-80.371zm-29.922-107.82c-5.2578-1.4102-10.684-2.6211-16.195-3.5938-4.1172-0.53906-7.3086-4.0664-7.3086-8.332v-43.094h-53.879v43.094c0 4.0156-2.8711 7.5586-6.957 8.2656-5.6289 0.99219-11.172 2.2188-16.531 3.6445-5.4766 1.4609-10.785 3.1406-15.859 4.9727-3.8125 1.5625-8.2812 0.10156-10.398-3.5625l-21.555-37.348-46.703 26.949 21.57 37.363c1.9805 3.4609 1.2773 7.9453-1.8633 10.602-4.1992 3.5273-8.3828 7.375-12.5 11.473-3.9492 3.9492-7.6602 7.9805-11.07 12.012-2.4883 3.4453-7.2422 4.5039-10.988 2.3359l-37.348-21.57-26.965 46.703 36.961 21.336c3.6953 1.8984 5.5117 6.2852 4.0508 10.297-1.8633 5.1406-3.543 10.449-4.9883 15.844l-0.085937 0.35156c-1.4102 5.2578-2.6055 10.668-3.5781 16.18-0.53906 4.1172-4.0664 7.3086-8.332 7.3086h-43.094v53.879h43.094c4.0156 0 7.5586 2.8711 8.2656 6.957 0.99219 5.6289 2.2188 11.172 3.6445 16.531 1.4609 5.4766 3.1406 10.785 4.9727 15.859 1.5625 3.8125 0.10156 8.2812-3.5625 10.398l-37.348 21.555 26.949 46.703 37.363-21.57c3.4609-1.9805 7.9453-1.2773 10.602 1.8633 3.5273 4.1992 7.375 8.3828 11.473 12.5 3.9492 3.9492 7.9805 7.6602 12.012 11.07 3.4453 2.4883 4.5039 7.2422 2.3359 10.988l-21.57 37.348 46.703 26.965 21.336-36.961c1.8984-3.6953 6.2852-5.5117 10.297-4.0508 5.1406 1.8633 10.449 3.543 15.844 4.9883l0.35156 0.085938c5.2578 1.4102 10.668 2.6055 16.18 3.5781 4.1172 0.53906 7.3086 4.0664 7.3086 8.332v43.094h53.879v-43.094c0-4.0156 2.8711-7.5586 6.957-8.2656 5.6289-0.99219 11.172-2.2188 16.531-3.6445 5.4766-1.4609 10.785-3.1406 15.859-4.9727 3.8125-1.5625 8.2812-0.10156 10.398 3.5625l21.555 37.348 46.703-26.949-21.57-37.363c-1.9805-3.4609-1.2773-7.9453 1.8633-10.602 4.1992-3.5273 8.3672-7.3594 12.484-11.473 3.9492-3.9492 7.6602-7.9805 11.09-12.012 2.4883-3.4453 7.2422-4.5039 10.988-2.3359l37.348 21.57 26.965-46.703-36.961-21.336c-3.6953-1.8984-5.5117-6.2852-4.0508-10.297 1.8633-5.1406 3.543-10.449 4.9883-15.844l0.085938-0.35156c1.4102-5.2578 2.6055-10.668 3.5781-16.18 0.53906-4.1172 4.0664-7.3086 8.332-7.3086h43.094v-53.879h-43.094c-4.0156 0-7.5586-2.8711-8.2656-6.957-0.99219-5.6289-2.2188-11.172-3.6445-16.547-1.4961-5.5781-3.207-10.988-5.0742-16.16-1.3438-3.7461 0.13281-8.0469 3.6953-10.098l37.328-21.555-26.965-46.703-37.379 21.59c-3.4609 1.9805-7.9453 1.2773-10.602-1.8633-3.5273-4.1992-7.3594-8.3672-11.457-12.484-3.9805-3.9648-8.1484-7.7969-12.484-11.441-3.0742-2.5703-3.9492-7.0547-1.8633-10.633l21.59-37.379-46.703-26.965-21.32 36.961c-1.8984 3.6953-6.3008 5.5117-10.297 4.0508-5.1406-1.8633-10.449-3.543-15.844-4.9883l-0.33594-0.085937z"/>
  <use x="70" y="585.199219" xlink:href="#t"/>
  <use x="76.164062" y="585.199219" xlink:href="#c"/>
  <use x="80.308594" y="585.199219" xlink:href="#b"/>
  <use x="86.003906" y="585.199219" xlink:href="#d"/>
  <use x="91.671875" y="585.199219" xlink:href="#a"/>
  <use x="95.6875" y="585.199219" xlink:href="#b"/>
  <use x="101.386719" y="585.199219" xlink:href="#i"/>
  <use x="110.324219" y="585.199219" xlink:href="#h"/>
  <use x="116.335938" y="585.199219" xlink:href="#g"/>
  <use x="124.734375" y="585.199219" xlink:href="#f"/>
  <use x="133.488281" y="585.199219" xlink:href="#d"/>
  <use x="139.15625" y="585.199219" xlink:href="#c"/>
  <use x="143.300781" y="585.199219" xlink:href="#s"/>
  <use x="151.058594" y="585.199219" xlink:href="#d"/>
  <use x="156.726562" y="585.199219" xlink:href="#a"/>
  <use x="160.742188" y="585.199219" xlink:href="#r"/>
  <use x="70" y="593.601562" xlink:href="#q"/>
  <use x="73.65625" y="593.601562" xlink:href="#c"/>
  <use x="77.796875" y="593.601562" xlink:href="#e"/>
  <use x="83.566406" y="593.601562" xlink:href="#f"/>
  <use x="95.246094" y="593.601562" xlink:href="#a"/>
  <use x="99.261719" y="593.601562" xlink:href="#p"/>
  <use x="105.242188" y="593.601562" xlink:href="#b"/>
  <use x="113.863281" y="593.601562" xlink:href="#o"/>
  <use x="120.894531" y="593.601562" xlink:href="#e"/>
  <use x="126.664062" y="593.601562" xlink:href="#n"/>
  <use x="132.644531" y="593.601562" xlink:href="#m"/>
  <use x="141.546875" y="593.601562" xlink:href="#l"/>
  <use x="147.703125" y="593.601562" xlink:href="#c"/>
  <use x="151.847656" y="593.601562" xlink:href="#e"/>
  <use x="157.617187" y="593.601562" xlink:href="#k"/>
  <use x="160.496094" y="593.601562" xlink:href="#b"/>
  <use x="166.195312" y="593.601562" xlink:href="#j"/>
  <use x="171.175781" y="593.601562" xlink:href="#a"/>
 </g>
</svg>
